<?xml version="1.0" standalone="no"?>
        <!DOCTYPE svg PUBLIC "-//W3C//DTD SVG 1.1//EN" 
        "http://www.w3.org/Graphics/SVG/1.1/DTD/svg11.dtd"><svg id="changeColor" fill="#DC7633" xmlns="http://www.w3.org/2000/svg" xmlns:xlink="http://www.w3.org/1999/xlink" width="187" zoomAndPan="magnify" viewBox="0 0 375 374.9999" height="187" preserveAspectRatio="xMidYMid meet" version="1.0"><defs><path id="pathAttribute" d="M 7.09375 7.09375 L 367.84375 7.09375 L 367.84375 367.84375 L 7.09375 367.84375 Z M 7.09375 7.09375 " fill="#03989e"></path></defs><g><path id="pathAttribute" d="M 187.46875 7.09375 C 87.851562 7.09375 7.09375 87.851562 7.09375 187.46875 C 7.09375 287.085938 87.851562 367.84375 187.46875 367.84375 C 287.085938 367.84375 367.84375 287.085938 367.84375 187.46875 C 367.84375 87.851562 287.085938 7.09375 187.46875 7.09375 " fill-opacity="1" fill-rule="nonzero" fill="#03989e"></path></g><g id="inner-icon" transform="translate(85, 75)"> <svg xmlns="http://www.w3.org/2000/svg" viewBox="0 0 512 512" id="IconChangeColor" height="199.8" width="199.8"> <path fill="#ffffff" d="M268.279,496c-67.574,0-130.978-26.191-178.534-73.745S16,311.293,16,243.718A252.252,252.252,0,0,1,154.183,18.676a24.44,24.44,0,0,1,34.46,28.958,220.12,220.12,0,0,0,54.8,220.923A218.746,218.746,0,0,0,399.085,333.2h0a220.2,220.2,0,0,0,65.277-9.846,24.439,24.439,0,0,1,28.959,34.461A252.256,252.256,0,0,1,268.279,496ZM153.31,55.781A219.3,219.3,0,0,0,48,243.718C48,365.181,146.816,464,268.279,464a219.3,219.3,0,0,0,187.938-105.31,252.912,252.912,0,0,1-57.13,6.513h0a250.539,250.539,0,0,1-178.268-74.016,252.147,252.147,0,0,1-67.509-235.4Z" class="ci-primary" id="mainIconPathAttribute"></path> </svg> </g></svg>